<svg height="20px" version="1.1" viewBox="0 0 14 20" width="14px" xmlns="http://www.w3.org/2000/svg" xmlns:xlink="http://www.w3.org/1999/xlink"><title/><g fill="none" fill-rule="evenodd" id="Icons" stroke="none" stroke-linecap="round" stroke-linejoin="round" stroke-width="1"><g id="Group" stroke="#6a6666" stroke-width="2" transform="translate(-5.000000, -2.000000)"><g id="Shape" transform="translate(6.000000, 3.000000)"><circle cx="9.00008312" cy="8.99991689" r="2.99999847"/><path d="M6.00008774,5.99991842 L6.00008774,0 L3.00008774,0 C1.34323278,0 8.77387263e-05,1.34314508 8.77387263e-05,3 C8.77387263e-05,4.65685186 1.34323278,6 3.00008774,6 L6.00008774,5.99991842 Z"/><path d="M6.00008769,11.9998368 L6.00008769,5.99991842 L3.00008769,5.99991842 C1.34323276,5.99991842 8.76940228e-05,7.34306349 8.76940228e-05,8.99991842 C8.76940228e-05,10.6567703 1.34323276,11.9999184 3.00008769,11.9999184 L6.00008769,11.9998368 Z"/><path d="M6.00008464,5.99991842 L6.00008464,0 L9.00008464,0 C10.6569365,0 12.0000846,1.34314508 12.0000846,3 C12.0000846,4.65685186 10.6569365,6 9.00008464,6 L6.00008464,5.99991842 Z"/><path d="M6.00008464,11.9998368 L6.00008464,14.9998741 C6.00008464,16.2132639 5.26918472,17.3071844 4.14816339,17.7715396 C3.02714207,18.2358949 1.73678273,17.9792376 0.878780942,17.1212471 C0.0207791575,16.2632567 -0.235895256,14.9729008 0.228445182,13.8518733 C0.692785619,12.7308458 1.78669644,11.9999154 3.00008617,11.9999154 L6.00008464,11.9998368 Z"/></g></g></g></svg>